<mxfile host="Electron" modified="2024-04-01T10:29:53.103Z" agent="Mozilla/5.0 (Windows NT 10.0; Win64; x64) AppleWebKit/537.36 (KHTML, like Gecko) draw.io/22.1.18 Chrome/120.0.6099.199 Electron/28.1.2 Safari/537.36" etag="cinXHzJEdNjE_81krGxR" version="22.1.18" type="device">
  <diagram name="dashboaed" id="FqvExswEZ7-lqOds21ne">
    <mxGraphModel dx="1591" dy="749" grid="1" gridSize="10" guides="1" tooltips="1" connect="1" arrows="1" fold="1" page="1" pageScale="1" pageWidth="1169" pageHeight="827" math="0" shadow="0">
      <root>
        <mxCell id="0" />
        <mxCell id="1" parent="0" />
        <mxCell id="Ssn1d2AuG9Uhdwx06F1F-1" value="&lt;p style=&quot;line-height: 120%;&quot;&gt;&lt;font style=&quot;font-size: 22px;&quot;&gt;$ 673984623&lt;br&gt;&lt;/font&gt;&lt;b&gt;Total Sales&lt;/b&gt;&lt;/p&gt;" style="rounded=1;whiteSpace=wrap;html=1;" vertex="1" parent="1">
          <mxGeometry x="290" y="10" width="200" height="80" as="geometry" />
        </mxCell>
        <mxCell id="Ssn1d2AuG9Uhdwx06F1F-2" value="&lt;p style=&quot;line-height: 120%;&quot;&gt;&lt;font style=&quot;font-size: 22px;&quot;&gt;67398&lt;br&gt;&lt;/font&gt;&lt;b&gt;Total transactions&lt;/b&gt;&lt;/p&gt;" style="rounded=1;whiteSpace=wrap;html=1;" vertex="1" parent="1">
          <mxGeometry x="510" y="10" width="200" height="80" as="geometry" />
        </mxCell>
        <mxCell id="Ssn1d2AuG9Uhdwx06F1F-3" value="&lt;p style=&quot;line-height: 120%;&quot;&gt;&lt;font style=&quot;font-size: 22px;&quot;&gt;34932&lt;br&gt;&lt;/font&gt;&lt;b&gt;Avg Order Bill&lt;/b&gt;&lt;/p&gt;" style="rounded=1;whiteSpace=wrap;html=1;" vertex="1" parent="1">
          <mxGeometry x="730" y="10" width="200" height="80" as="geometry" />
        </mxCell>
        <mxCell id="Ssn1d2AuG9Uhdwx06F1F-4" value="&lt;p style=&quot;line-height: 120%;&quot;&gt;&lt;font style=&quot;font-size: 22px;&quot;&gt;1.44&lt;br&gt;&lt;/font&gt;&lt;b&gt;Avg Order&lt;/b&gt;&lt;/p&gt;" style="rounded=1;whiteSpace=wrap;html=1;" vertex="1" parent="1">
          <mxGeometry x="950" y="10" width="200" height="80" as="geometry" />
        </mxCell>
        <mxCell id="Ssn1d2AuG9Uhdwx06F1F-6" value="&lt;b&gt;&lt;font color=&quot;#ff0000&quot; style=&quot;font-size: 37px;&quot;&gt;Compnay logo&lt;/font&gt;&lt;/b&gt;" style="rounded=1;whiteSpace=wrap;html=1;" vertex="1" parent="1">
          <mxGeometry x="10" y="10" width="270" height="80" as="geometry" />
        </mxCell>
        <mxCell id="Ssn1d2AuG9Uhdwx06F1F-10" value="" style="rounded=0;whiteSpace=wrap;html=1;" vertex="1" parent="1">
          <mxGeometry x="190" y="110" width="970" height="660" as="geometry" />
        </mxCell>
        <mxCell id="Ssn1d2AuG9Uhdwx06F1F-12" value="" style="whiteSpace=wrap;html=1;aspect=fixed;" vertex="1" parent="1">
          <mxGeometry x="200" y="120" width="300" height="300" as="geometry" />
        </mxCell>
        <mxCell id="Ssn1d2AuG9Uhdwx06F1F-13" value="" style="whiteSpace=wrap;html=1;aspect=fixed;" vertex="1" parent="1">
          <mxGeometry x="520" y="120" width="300" height="300" as="geometry" />
        </mxCell>
        <mxCell id="Ssn1d2AuG9Uhdwx06F1F-14" value="" style="whiteSpace=wrap;html=1;aspect=fixed;" vertex="1" parent="1">
          <mxGeometry x="840" y="120" width="300" height="300" as="geometry" />
        </mxCell>
        <mxCell id="Ssn1d2AuG9Uhdwx06F1F-15" value="" style="whiteSpace=wrap;html=1;aspect=fixed;" vertex="1" parent="1">
          <mxGeometry x="200" y="440" width="300" height="300" as="geometry" />
        </mxCell>
        <mxCell id="Ssn1d2AuG9Uhdwx06F1F-16" value="" style="whiteSpace=wrap;html=1;aspect=fixed;" vertex="1" parent="1">
          <mxGeometry x="520" y="440" width="300" height="300" as="geometry" />
        </mxCell>
        <mxCell id="Ssn1d2AuG9Uhdwx06F1F-17" value="" style="whiteSpace=wrap;html=1;aspect=fixed;" vertex="1" parent="1">
          <mxGeometry x="840" y="440" width="300" height="300" as="geometry" />
        </mxCell>
        <mxCell id="Ssn1d2AuG9Uhdwx06F1F-19" value="Sales By&amp;nbsp; Store&lt;span id=&quot;docs-internal-guid-c5c3469c-7fff-0205-b7ca-c40141dbb6bf&quot;&gt;&lt;/span&gt;&lt;span id=&quot;docs-internal-guid-ba89c436-7fff-a0d2-d99c-81f44870b845&quot;&gt;&lt;/span&gt;" style="text;html=1;strokeColor=none;fillColor=none;align=center;verticalAlign=middle;whiteSpace=wrap;rounded=0;" vertex="1" parent="1">
          <mxGeometry x="310" y="280" width="100" height="30" as="geometry" />
        </mxCell>
      </root>
    </mxGraphModel>
  </diagram>
</mxfile>
